:FULLY-SPECIFIED
:FORCE-ALL-JOINTS-BE-3DOF
:DEGREES
2344
root 0.676706 14.0754 -18.4184 933.609 -38.5764 156.083
lfemur -4.49981 -6.35204 0.303092
ltibia 33.8813 0 0
lfoot -11.2723 26.7487 0
ltoes -45.3952 0 0
rfemur -67.8679 -12.2011 12.6866
rtibia 78.8748 0 0
rfoot -10.7415 -17.8108 0
rtoes 5.76121 0 0
lowerback 19.9843 3.45713 -3.2585
upperback 0.383448 3.55015 -0.631072
thorax -11.0015 1.76211 0.146813
lowerneck -5.21863 -2.53209 -4.91711
upperneck 2.49947 -2.95778 0.236975
head 1.92364 -1.52919 0.913878
lclavicle -1.23636e-13 4.31092e-15 0
lhumerus -33.6776 -18.5771 83.4417
lradius 101.25 0 0
lwrist 48.527 0 0
lhand -24.4538 403.045 0
lfingers 7.12502 0 0
lthumb 2.03991 -666.224 0
rclavicle -1.23636e-13 4.31092e-15 0
rhumerus 46.8179 13.1701 -49.7494
rradius 48.2685 0 0
rwrist 6.31115 0 0
rhand -6.56432 -397.899 0
rfingers 7.12502 0 0
rthumb 19.2896 293.035 0
2345
root 0.670473 14.1003 -18.5749 937.865 -37.6491 152.868
lfemur -5.74623 -6.1502 -0.109889
ltibia 35.3181 0 0
lfoot -10.975 26.5836 0
ltoes -44.6343 0 0
rfemur -67.3551 -11.6652 12.9073
rtibia 78.7542 0 0
rfoot -11.0054 -18.2898 0
rtoes 5.5165 0 0
lowerback 20.0128 3.40967 -3.04379
upperback 0.35991 3.53563 -0.584203
thorax -11.0364 1.74633 0.0797622
lowerneck -5.26966 -2.1096 -4.58198
upperneck 2.64488 -2.37751 -0.149345
head 1.97788 -1.2469 0.769252
lclavicle -1.22319e-13 4.38784e-15 0
lhumerus -30.7087 -19.2512 82.1424
lradius 101.572 0 0
lwrist 46.2991 0 0
lhand -24.8844 402.97 0
lfingers 7.12502 0 0
lthumb 1.6242 -668.241 0
rclavicle -1.22319e-13 4.38784e-15 0
rhumerus 45.4875 14.476 -50.3055
rradius 49.5155 0 0
rwrist 5.69066 0 0
rhand -6.28726 -397.937 0
rfingers 7.12502 0 0
rthumb 19.5559 293.024 0
2346
root 0.664239 14.1253 -18.7313 942.365 -36.6597 149.498
lfemur -7.04223 -5.92898 -0.564541
ltibia 36.8345 0 0
lfoot -10.6703 26.4212 0
ltoes -43.8271 0 0
rfemur -66.8197 -11.1062 13.1376
rtibia 78.6234 0 0
rfoot -11.2847 -18.7615 0
rtoes 5.25636 0 0
lowerback 20.0308 3.35828 -2.82848
upperback 0.331568 3.51775 -0.535855
thorax -11.0703 1.72902 0.0150516
lowerneck -5.31792 -1.67015 -4.23278
upperneck 2.80218 -1.77465 -0.55007
head 2.03691 -0.953772 0.618829
lclavicle -1.20768e-13 4.43788e-15 0
lhumerus -27.5946 -19.9672 80.7839
lradius 101.915 0 0
lwrist 43.9484 0 0
lhand -25.3287 402.901 0
lfingers 7.12502 0 0
lthumb 1.19531 -669.935 0
rclavicle -1.20768e-13 4.43788e-15 0
rhumerus 44.0727 15.8358 -50.9058
rradius 50.798 0 0
rwrist 5.06809 0 0
rhand -6.00735 -397.983 0
rfingers 7.12502 0 0
rthumb 19.8249 293.006 0
2347
root 0.658006 14.1502 -18.8878 947.088 -35.611 145.981
lfemur -8.38377 -5.68944 -1.058
ltibia 38.4242 0 0
lfoot -10.3592 26.2613 0
ltoes -42.9773 0 0
rfemur -66.2631 -10.5265 13.377
rtibia 78.4836 0 0
rfoot -11.5778 -19.2255 0
rtoes 4.98175 0 0
lowerback 20.0385 3.30331 -2.61292
upperback 0.298719 3.4968 -0.48617
thorax -11.1034 1.7103 -0.0473597
lowerneck -5.3633 -1.21566 -3.87106
upperneck 2.97032 -1.15182 -0.963414
head 2.10033 -0.651081 0.463298
lclavicle -1.18994e-13 4.46289e-15 0
lhumerus -24.3486 -20.7217 79.3721
lradius 102.278 0 0
lwrist 41.4854 0 0
lhand -25.7852 402.837 0
lfingers 7.12502 0 0
lthumb 0.754567 -671.322 0
rclavicle -1.18994e-13 4.46289e-15 0
rhumerus 42.5814 17.2446 -51.5467
rradius 52.1135 0 0
rwrist 4.44327 0 0
rhand -5.72528 -398.036 0
rfingers 7.12502 0 0
rthumb 20.0959 292.983 0
2348
root 0.651773 14.1751 -19.0443 952.011 -34.5055 142.326
lfemur -9.76679 -5.43264 -1.58741
ltibia 40.0809 0 0
lfoot -10.0427 26.1038 0
ltoes -42.089 0 0
rfemur -65.6869 -9.9286 13.6245
rtibia 78.3358 0 0
rfoot -11.8835 -19.6815 0
rtoes 4.69363 0 0
lowerback 20.0366 3.24507 -2.39744
upperback 0.261659 3.47302 -0.435289
thorax -11.1355 1.6903 -0.107513
lowerneck -5.40572 -0.748073 -3.49843
upperneck 3.14825 -0.51163 -1.38759
head 2.16777 -0.340093 0.303349
lclavicle -1.17013e-13 4.46472e-15 0
lhumerus -20.9838 -21.5115 77.913
lradius 102.658 0 0
lwrist 38.9207 0 0
lhand -26.2526 402.777 0
lfingers 7.12502 0 0
lthumb 0.303346 -672.418 0
rclavicle -1.17013e-13 4.46472e-15 0
rhumerus 41.021 18.6979 -52.2243
rradius 53.4591 0 0
rwrist 3.81605 0 0
rhand -5.44179 -398.095 0
rfingers 7.12502 0 0
rthumb 20.3682 292.953 0
2349
root 0.64554 14.2001 -19.2007 957.114 -33.346 138.541
lfemur -11.1872 -5.15966 -2.14989
ltibia 41.7983 0 0
lfoot -9.72192 25.9483 0
ltoes -41.166 0 0
rfemur -65.0926 -9.31492 13.8796
rtibia 78.1809 0 0
rfoot -12.2003 -20.129 0
rtoes 4.39296 0 0
lowerback 20.0255 3.18388 -2.18236
upperback 0.220684 3.44669 -0.383354
thorax -11.1667 1.66918 -0.165448
lowerneck -5.44508 -0.269301 -3.11644
upperneck 3.33494 0.143307 -1.82081
head 2.23884 -0.0220758 0.139672
lclavicle -1.14837e-13 4.44526e-15 0
lhumerus -17.5135 -22.3331 76.4127
lradius 103.054 0 0
lwrist 36.2649 0 0
lhand -26.7294 402.723 0
lfingers 7.12502 0 0
lthumb -0.157 -673.237 0
rclavicle -1.14837e-13 4.44526e-15 0
rhumerus 39.3993 20.1909 -52.9347
rradius 54.8323 0 0
rwrist 3.18628 0 0
rhand -5.15758 -398.16 0
rfingers 7.12502 0 0
rthumb 20.6413 292.918 0
2350
root 0.639307 14.225 -19.3572 962.374 -32.135 134.633
lfemur -12.641 -4.87157 -2.74261
ltibia 43.5702 0 0
lfoot -9.39789 25.7946 0
ltoes -40.2123 0 0
rfemur -64.4818 -8.6879 14.1415
rtibia 78.0201 0 0
rfoot -12.5268 -20.5678 0
rtoes 4.08071 0 0
lowerback 20.0059 3.12009 -1.96803
upperback 0.176092 3.41806 -0.330506
thorax -11.1968 1.64706 -0.221207
lowerneck -5.48127 0.218725 -2.72669
upperneck 3.52933 0.810375 -2.26129
head 2.31315 0.301704 -0.0270435
lclavicle -1.12481e-13 4.40634e-15 0
lhumerus -13.9508 -23.1831 74.8772
lradius 103.464 0 0
lwrist 33.5284 0 0
lhand -27.2143 402.672 0
lfingers 7.12502 0 0
lthumb -0.625116 -673.797 0
rclavicle -1.12481e-13 4.40634e-15 0
rhumerus 37.7239 21.7189 -53.6743
rradius 56.2302 0 0
rwrist 2.5538 0 0
rhand -4.87338 -398.231 0
rfingers 7.12502 0 0
rthumb 20.9142 292.878 0
